<svg xmlns="http://www.w3.org/2000/svg" width="32" height="32"><path fill="#fff" d="M4.733 26a1 1 0 01-.139-1.393.888.888 0 011.235-.148c2.304 1.772 5.731 3.227 8.208 1.276a8.94 8.94 0 00.355 1.891A6.95 6.95 0 0112 28.36V31a1 1 0 01-2 0v-2.624C7.965 28.18 6.264 27.279 4.733 26zm7.494-8.806c1.32.754 2.523 1.75 3.055 3.193a9.03 9.03 0 011.443-1.832c-1.12-1.784-3.08-2.906-5.12-3.877-1.493-.712-3.215-1.45-4.15-2.893-.899-1.387-.857-3.387.125-4.723 1.995-2.713 5.476-1.597 7.687.166a.89.89 0 001.199-.083l.052-.055a.887.887 0 00-.049-1.27c-1.26-1.144-2.708-1.93-4.469-2.1V1a1 1 0 00-2 0v2.718c-3.702.514-6.1 4.095-5.01 7.723.976 3.249 4.603 4.249 7.237 5.753zM23 18a7 7 0 110 14 7 7 0 010-14zm-5 7a1 1 0 001 1h3v3a1 1 0 002 0v-3h3a1 1 0 000-2h-3v-3a1 1 0 00-2 0v3h-3a1 1 0 00-1 1z"/></svg>