<svg xmlns="http://www.w3.org/2000/svg" width="32" height="32"><path fill="#fff" d="M4.99 11.441C3.9 7.813 6.298 4.232 10 3.718V1a1 1 0 012 0v2.72c1.761.17 3.209.957 4.47 2.1a.886.886 0 01.049 1.27l-.052.055a.89.89 0 01-1.199.083c-2.212-1.763-5.693-2.879-7.688-.166-.982 1.336-1.024 3.336-.125 4.723.935 1.443 2.656 2.181 4.15 2.893 2.04.971 4.001 2.093 5.12 3.877a9.03 9.03 0 00-1.443 1.832c-.532-1.443-1.735-2.439-3.055-3.193-2.634-1.504-6.261-2.504-7.237-5.753zM10 28.376V31a1 1 0 002 0v-2.64a6.97 6.97 0 002.392-.733 8.94 8.94 0 01-.355-1.891c-2.477 1.951-5.904.496-8.208-1.276a.889.889 0 00-1.235.148A.998.998 0 004.733 26c1.531 1.279 3.232 2.18 5.267 2.376zM30 25a7 7 0 11-14 0 7 7 0 0114 0zm-2.5-.625l-2.788-3.485a.4.4 0 00-.712.25V24h-5a1 1 0 000 2h5v2.86a.4.4 0 00.713.249l2.788-3.485a1.001 1.001 0 00-.001-1.249z"/></svg>